Coordinates
version=1
nRows=8
nColumns=28
inDegrees=yes

Units are S.I. units (second, meters, Newtons, ...)
Angles are in degrees.

endheader
time	pelvis_tilt	pelvis_list	pelvis_rotation	pelvis_tx	pelvis_ty	pelvis_tz	hip_flexion_r	hip_adduction_r	hip_rotation_r	knee_angle_r	ankle_angle_r	subtalar_angle_r	mtp_angle_r	hip_flexion_l	hip_adduction_l	hip_rotation_l	knee_angle_l	socket_flexion	socket_adduction	socket_rotation	socket_tx	socket_ty	socket_tz	foot_flex	lumbar_extension	lumbar_bending	lumbar_rotation
      0.65416667	     -0.64781679	     -1.89433915	      6.50419555	     -0.03681164	      0.97739834	      0.26349895	     28.27723985	      4.06817516	      0.26250912	     -9.35139561	     16.11516675	    -25.68849012	     -5.55504025	    -23.40292209	     -3.47838787	     15.54262953	      6.97257914	      6.30427328	      0.00000000	      0.00000000	      0.00000000	      0.00000000	      0.00000000	     10.55475237	    -10.25200656	      1.49226000	     -0.85903033
      0.65833333	     -0.63595842	     -1.95607780	      6.69645871	     -0.03082589	      0.97644061	      0.26310869	     28.31850782	      4.19480421	      0.51482209	     -9.91313050	     15.98089700	    -25.67641184	     -5.54300258	    -23.65334476	     -3.61547569	     15.66544341	      6.80148243	      6.33120125	      0.00000000	      0.00000000	      0.00000000	      0.00000000	      0.00000000	     10.57125729	    -10.21337723	      1.67945190	     -0.86397022
      0.66250000	     -0.60694783	     -2.03462348	      6.82786485	     -0.02482460	      0.97550935	      0.26276263	     28.39913714	      4.35891325	      0.70607495	    -10.58102918	     15.79041678	    -25.68475016	     -5.52195166	    -23.92413990	     -3.74409522	     15.72679602	      6.61868748	      6.36971875	      0.00000000	      0.00000000	      0.00000000	      0.00000000	      0.00000000	     10.59451154	    -10.20246739	      1.88889300	     -0.89679835
      0.66666667	     -0.55858766	     -2.12270528	      6.91466289	     -0.01878627	      0.97459317	      0.26248169	     28.50797576	      4.54366372	      0.83416286	    -11.33833297	     15.52948311	    -25.69847405	     -5.47785379	    -24.22146673	     -3.86650311	     15.70651931	      6.43117799	      6.41615477	      0.00000000	      0.00000000	      0.00000000	      0.00000000	      0.00000000	     10.61063524	    -10.20865764	      2.11470206	     -0.95178690
      0.67083333	     -0.50027009	     -2.21979458	      6.97456435	     -0.01273438	      0.97371430	      0.26219217	     28.61867386	      4.74549223	      0.93442951	    -12.12217881	     15.21636527	    -25.69006795	     -5.40362553	    -24.52441696	     -3.98149096	     15.65428592	      6.24013374	      6.47007619	      0.00000000	      0.00000000	      0.00000000	      0.00000000	      0.00000000	     10.60902497	    -10.22724596	      2.35709423	     -1.00863682
      0.67500000	     -0.46264399	     -2.29651834	      7.08905478	     -0.00652951	      0.97288747	      0.26187838	     28.67470824	      4.89878395	      1.05276552	    -12.77438641	     14.94721124	    -25.65531324	     -5.33178604	    -24.79718922	     -4.09473808	     15.60283623	      6.03867340	      6.55366105	      0.00000000	      0.00000000	      0.00000000	      0.00000000	      0.00000000	     10.58255797	    -10.18504300	      2.55841778	     -1.03934924
      0.67916667	     -0.39216848	     -2.41828828	      7.10152329	     -0.00040359	      0.97207662	      0.26165606	     28.80494551	      5.13806894	      1.10371967	    -13.61901563	     14.53563733	    -25.60342081	     -5.20522112	    -25.09865285	     -4.21117600	     15.50169731	      5.81281949	      6.60833404	      0.00000000	      0.00000000	      0.00000000	      0.00000000	      0.00000000	     10.54173732	    -10.21707800	      2.83458637	     -1.08706775
      0.68333333	     -0.06298724	     -2.50883664	      7.21392000	      0.00607183	      0.97148871	      0.26085082	     28.81686760	      5.12563217	     -0.01797092	    -14.65728793	     11.89675689	    -25.42296237	      5.71966251	    -25.74562917	     -4.32395692	     15.27602218	      5.71994215	      6.76301569	      0.00000000	      0.00000000	      0.00000000	      0.00000000	      0.00000000	     10.48712174	    -10.48279439	      3.15679894	     -1.21398820
